<?xml version="1.0" encoding="UTF-8" standalone="no"?>
<!DOCTYPE svg PUBLIC "-//W3C//DTD SVG 1.1//EN"
 "http://www.w3.org/Graphics/SVG/1.1/DTD/svg11.dtd">
<!-- Generated by graphviz version 2.47.3 (20210619.1520)
 -->
<!-- Title: dependencies Pages: 1 -->
<svg width="907pt" height="247pt"
 viewBox="0.00 0.00 907.00 246.80" xmlns="http://www.w3.org/2000/svg" xmlns:xlink="http://www.w3.org/1999/xlink">
<g id="graph0" class="graph" transform="scale(1 1) rotate(0) translate(4 242.8)">
<title>dependencies</title>
<polygon fill="white" stroke="transparent" points="-4,4 -4,-242.8 903,-242.8 903,4 -4,4"/>
<text text-anchor="middle" x="449.5" y="-8.2" font-family="sans-serif" font-size="14.00">dependencies</text>
<g id="clust1" class="cluster">
<title>cluster_CoreModule</title>
<polygon fill="none" stroke="black" stroke-dasharray="1,5" points="8,-32.8 8,-230.8 891,-230.8 891,-32.8 8,-32.8"/>
</g>
<g id="clust7" class="cluster">
<title>cluster_CoreModule_exports</title>
<polygon fill="none" stroke="black" points="16,-170.8 16,-222.8 883,-222.8 883,-170.8 16,-170.8"/>
</g>
<g id="clust2" class="cluster">
<title>cluster_CoreModule_declarations</title>
<polygon fill="none" stroke="black" points="242,-40.8 242,-92.8 638,-92.8 638,-40.8 242,-40.8"/>
</g>
<!-- FooterComponent -->
<g id="node1" class="node">
<title>FooterComponent</title>
<polygon fill="#ffffb3" stroke="black" points="629.88,-84.8 512.12,-84.8 512.12,-48.8 629.88,-48.8 629.88,-84.8"/>
<text text-anchor="middle" x="571" y="-62.6" font-family="Times,serif" font-size="14.00">FooterComponent</text>
</g>
<!-- CoreModule -->
<g id="node4" class="node">
<title>CoreModule</title>
<polygon fill="#8dd3c7" stroke="black" points="476.26,-149.8 473.26,-153.8 452.26,-153.8 449.26,-149.8 389.74,-149.8 389.74,-113.8 476.26,-113.8 476.26,-149.8"/>
<text text-anchor="middle" x="433" y="-127.6" font-family="Times,serif" font-size="14.00">CoreModule</text>
</g>
<!-- FooterComponent&#45;&gt;CoreModule -->
<g id="edge1" class="edge">
<title>FooterComponent&#45;&gt;CoreModule</title>
<path fill="none" stroke="black" d="M552.37,-84.81C552.37,-100.85 552.37,-121.8 552.37,-121.8 552.37,-121.8 486.43,-121.8 486.43,-121.8"/>
<polygon fill="black" stroke="black" points="486.43,-118.3 476.43,-121.8 486.43,-125.3 486.43,-118.3"/>
</g>
<!-- HeaderComponent -->
<g id="node2" class="node">
<title>HeaderComponent</title>
<polygon fill="#ffffb3" stroke="black" points="493.74,-84.8 372.26,-84.8 372.26,-48.8 493.74,-48.8 493.74,-84.8"/>
<text text-anchor="middle" x="433" y="-62.6" font-family="Times,serif" font-size="14.00">HeaderComponent</text>
</g>
<!-- HeaderComponent&#45;&gt;CoreModule -->
<g id="edge2" class="edge">
<title>HeaderComponent&#45;&gt;CoreModule</title>
<path fill="none" stroke="black" d="M433,-84.91C433,-84.91 433,-103.79 433,-103.79"/>
<polygon fill="black" stroke="black" points="429.5,-103.79 433,-113.79 436.5,-103.79 429.5,-103.79"/>
</g>
<!-- NavComponent -->
<g id="node3" class="node">
<title>NavComponent</title>
<polygon fill="#ffffb3" stroke="black" points="354.15,-84.8 249.85,-84.8 249.85,-48.8 354.15,-48.8 354.15,-84.8"/>
<text text-anchor="middle" x="302" y="-62.6" font-family="Times,serif" font-size="14.00">NavComponent</text>
</g>
<!-- NavComponent&#45;&gt;CoreModule -->
<g id="edge3" class="edge">
<title>NavComponent&#45;&gt;CoreModule</title>
<path fill="none" stroke="black" d="M306.62,-84.81C306.62,-100.85 306.62,-121.8 306.62,-121.8 306.62,-121.8 379.51,-121.8 379.51,-121.8"/>
<polygon fill="black" stroke="black" points="379.51,-125.3 389.51,-121.8 379.51,-118.3 379.51,-125.3"/>
</g>
<!-- FooterComponent  -->
<g id="node5" class="node">
<title>FooterComponent </title>
<polygon fill="#fb8072" stroke="black" points="874.88,-214.8 753.12,-214.8 753.12,-178.8 874.88,-178.8 874.88,-214.8"/>
<text text-anchor="middle" x="814" y="-192.6" font-family="Times,serif" font-size="14.00">FooterComponent </text>
</g>
<!-- CoreModule&#45;&gt;FooterComponent  -->
<g id="edge4" class="edge">
<title>CoreModule&#45;&gt;FooterComponent </title>
<path fill="none" stroke="black" stroke-dasharray="5,2" d="M476.33,-128.8C576.19,-128.8 814,-128.8 814,-128.8 814,-128.8 814,-168.58 814,-168.58"/>
<polygon fill="black" stroke="black" points="810.5,-168.58 814,-178.58 817.5,-168.58 810.5,-168.58"/>
</g>
<!-- HeaderComponent  -->
<g id="node6" class="node">
<title>HeaderComponent </title>
<polygon fill="#fb8072" stroke="black" points="735.74,-214.8 610.26,-214.8 610.26,-178.8 735.74,-178.8 735.74,-214.8"/>
<text text-anchor="middle" x="673" y="-192.6" font-family="Times,serif" font-size="14.00">HeaderComponent </text>
</g>
<!-- CoreModule&#45;&gt;HeaderComponent  -->
<g id="edge5" class="edge">
<title>CoreModule&#45;&gt;HeaderComponent </title>
<path fill="none" stroke="black" stroke-dasharray="5,2" d="M476.41,-135.8C531.7,-135.8 620.16,-135.8 620.16,-135.8 620.16,-135.8 620.16,-168.5 620.16,-168.5"/>
<polygon fill="black" stroke="black" points="616.66,-168.5 620.16,-178.5 623.66,-168.5 616.66,-168.5"/>
</g>
<!-- IconsModule  -->
<g id="node7" class="node">
<title>IconsModule </title>
<polygon fill="#fb8072" stroke="black" points="592.87,-214.8 499.13,-214.8 499.13,-178.8 592.87,-178.8 592.87,-214.8"/>
<text text-anchor="middle" x="546" y="-192.6" font-family="Times,serif" font-size="14.00">IconsModule </text>
</g>
<!-- CoreModule&#45;&gt;IconsModule  -->
<g id="edge6" class="edge">
<title>CoreModule&#45;&gt;IconsModule </title>
<path fill="none" stroke="black" stroke-dasharray="5,2" d="M476.54,-142.8C492.02,-142.8 505.69,-142.8 505.69,-142.8 505.69,-142.8 505.69,-168.52 505.69,-168.52"/>
<polygon fill="black" stroke="black" points="502.19,-168.52 505.69,-178.52 509.19,-168.52 502.19,-168.52"/>
</g>
<!-- LoginModule  -->
<g id="node8" class="node">
<title>LoginModule </title>
<polygon fill="#fb8072" stroke="black" points="481.49,-214.8 384.51,-214.8 384.51,-178.8 481.49,-178.8 481.49,-214.8"/>
<text text-anchor="middle" x="433" y="-192.6" font-family="Times,serif" font-size="14.00">LoginModule </text>
</g>
<!-- CoreModule&#45;&gt;LoginModule  -->
<g id="edge7" class="edge">
<title>CoreModule&#45;&gt;LoginModule </title>
<path fill="none" stroke="black" stroke-dasharray="5,2" d="M433,-149.91C433,-149.91 433,-168.79 433,-168.79"/>
<polygon fill="black" stroke="black" points="429.5,-168.79 433,-178.79 436.5,-168.79 429.5,-168.79"/>
</g>
<!-- NavComponent  -->
<g id="node9" class="node">
<title>NavComponent </title>
<polygon fill="#fb8072" stroke="black" points="367.15,-214.8 258.85,-214.8 258.85,-178.8 367.15,-178.8 367.15,-214.8"/>
<text text-anchor="middle" x="313" y="-192.6" font-family="Times,serif" font-size="14.00">NavComponent </text>
</g>
<!-- CoreModule&#45;&gt;NavComponent  -->
<g id="edge8" class="edge">
<title>CoreModule&#45;&gt;NavComponent </title>
<path fill="none" stroke="black" stroke-dasharray="5,2" d="M389.69,-142.8C374.29,-142.8 360.7,-142.8 360.7,-142.8 360.7,-142.8 360.7,-168.52 360.7,-168.52"/>
<polygon fill="black" stroke="black" points="357.2,-168.52 360.7,-178.52 364.2,-168.52 357.2,-168.52"/>
</g>
<!-- TemplatesModule  -->
<g id="node10" class="node">
<title>TemplatesModule </title>
<polygon fill="#fb8072" stroke="black" points="240.86,-214.8 119.14,-214.8 119.14,-178.8 240.86,-178.8 240.86,-214.8"/>
<text text-anchor="middle" x="180" y="-192.6" font-family="Times,serif" font-size="14.00">TemplatesModule </text>
</g>
<!-- CoreModule&#45;&gt;TemplatesModule  -->
<g id="edge9" class="edge">
<title>CoreModule&#45;&gt;TemplatesModule </title>
<path fill="none" stroke="black" stroke-dasharray="5,2" d="M389.51,-135.8C317.17,-135.8 180,-135.8 180,-135.8 180,-135.8 180,-168.5 180,-168.5"/>
<polygon fill="black" stroke="black" points="176.5,-168.5 180,-178.5 183.5,-168.5 176.5,-168.5"/>
</g>
<!-- UiModule  -->
<g id="node11" class="node">
<title>UiModule </title>
<polygon fill="#fb8072" stroke="black" points="101.55,-214.8 24.45,-214.8 24.45,-178.8 101.55,-178.8 101.55,-214.8"/>
<text text-anchor="middle" x="63" y="-192.6" font-family="Times,serif" font-size="14.00">UiModule </text>
</g>
<!-- CoreModule&#45;&gt;UiModule  -->
<g id="edge10" class="edge">
<title>CoreModule&#45;&gt;UiModule </title>
<path fill="none" stroke="black" stroke-dasharray="5,2" d="M389.47,-128.8C291.66,-128.8 63,-128.8 63,-128.8 63,-128.8 63,-168.58 63,-168.58"/>
<polygon fill="black" stroke="black" points="59.5,-168.58 63,-178.58 66.5,-168.58 59.5,-168.58"/>
</g>
</g>
</svg>
