<?xml version="1.0" encoding="UTF-8" standalone="no"?>
<!DOCTYPE svg PUBLIC "-//W3C//DTD SVG 1.1//EN"
 "http://www.w3.org/Graphics/SVG/1.1/DTD/svg11.dtd">
<!-- Generated by graphviz version 2.47.3 (20210619.1520)
 -->
<!-- Title: dependencies Pages: 1 -->
<svg width="289pt" height="174pt"
 viewBox="0.00 0.00 289.00 173.80" xmlns="http://www.w3.org/2000/svg" xmlns:xlink="http://www.w3.org/1999/xlink">
<g id="graph0" class="graph" transform="scale(1 1) rotate(0) translate(4 169.8)">
<title>dependencies</title>
<polygon fill="white" stroke="transparent" points="-4,4 -4,-169.8 285,-169.8 285,4 -4,4"/>
<text text-anchor="middle" x="140.5" y="-8.2" font-family="sans-serif" font-size="14.00">dependencies</text>
<g id="clust1" class="cluster">
<title>cluster_SharedModule</title>
<polygon fill="none" stroke="black" stroke-dasharray="1,5" points="8,-32.8 8,-157.8 273,-157.8 273,-32.8 8,-32.8"/>
</g>
<g id="clust4" class="cluster">
<title>cluster_SharedModule_exports</title>
<polygon fill="none" stroke="black" points="16,-97.8 16,-149.8 265,-149.8 265,-97.8 16,-97.8"/>
</g>
<!-- IconsModule  -->
<g id="node1" class="node">
<title>IconsModule </title>
<polygon fill="#fb8072" stroke="black" points="256.87,-141.8 163.13,-141.8 163.13,-105.8 256.87,-105.8 256.87,-141.8"/>
<text text-anchor="middle" x="210" y="-119.6" font-family="Times,serif" font-size="14.00">IconsModule </text>
</g>
<!-- TemplatesModule  -->
<g id="node2" class="node">
<title>TemplatesModule </title>
<polygon fill="#fb8072" stroke="black" points="145.86,-141.8 24.14,-141.8 24.14,-105.8 145.86,-105.8 145.86,-141.8"/>
<text text-anchor="middle" x="85" y="-119.6" font-family="Times,serif" font-size="14.00">TemplatesModule </text>
</g>
<!-- SharedModule -->
<g id="node3" class="node">
<title>SharedModule</title>
<polygon fill="#8dd3c7" stroke="black" points="196.42,-76.8 193.42,-80.8 172.42,-80.8 169.42,-76.8 97.58,-76.8 97.58,-40.8 196.42,-40.8 196.42,-76.8"/>
<text text-anchor="middle" x="147" y="-54.6" font-family="Times,serif" font-size="14.00">SharedModule</text>
</g>
<!-- SharedModule&#45;&gt;IconsModule  -->
<g id="edge1" class="edge">
<title>SharedModule&#45;&gt;IconsModule </title>
<path fill="none" stroke="black" stroke-dasharray="5,2" d="M179.76,-76.91C179.76,-76.91 179.76,-95.79 179.76,-95.79"/>
<polygon fill="black" stroke="black" points="176.26,-95.79 179.76,-105.79 183.26,-95.79 176.26,-95.79"/>
</g>
<!-- SharedModule&#45;&gt;TemplatesModule  -->
<g id="edge2" class="edge">
<title>SharedModule&#45;&gt;TemplatesModule </title>
<path fill="none" stroke="black" stroke-dasharray="5,2" d="M121.74,-76.91C121.74,-76.91 121.74,-95.79 121.74,-95.79"/>
<polygon fill="black" stroke="black" points="118.24,-95.79 121.74,-105.79 125.24,-95.79 118.24,-95.79"/>
</g>
</g>
</svg>
