<?xml version="1.0" encoding="UTF-8" standalone="no"?>
<!DOCTYPE svg PUBLIC "-//W3C//DTD SVG 1.1//EN"
 "http://www.w3.org/Graphics/SVG/1.1/DTD/svg11.dtd">
<!-- Generated by graphviz version 2.47.3 (20210619.1520)
 -->
<!-- Title: dependencies Pages: 1 -->
<svg width="590pt" height="174pt"
 viewBox="0.00 0.00 590.00 173.80" xmlns="http://www.w3.org/2000/svg" xmlns:xlink="http://www.w3.org/1999/xlink">
<g id="graph0" class="graph" transform="scale(1 1) rotate(0) translate(4 169.8)">
<title>dependencies</title>
<polygon fill="white" stroke="transparent" points="-4,4 -4,-169.8 586,-169.8 586,4 -4,4"/>
<text text-anchor="middle" x="291" y="-8.2" font-family="sans-serif" font-size="14.00">dependencies</text>
<g id="clust1" class="cluster">
<title>cluster_OrdersModule</title>
<polygon fill="none" stroke="black" stroke-dasharray="1,5" points="8,-32.8 8,-157.8 574,-157.8 574,-32.8 8,-32.8"/>
</g>
<g id="clust2" class="cluster">
<title>cluster_OrdersModule_declarations</title>
<polygon fill="none" stroke="black" points="16,-40.8 16,-92.8 566,-92.8 566,-40.8 16,-40.8"/>
</g>
<!-- PageAddOrderComponent -->
<g id="node1" class="node">
<title>PageAddOrderComponent</title>
<polygon fill="#ffffb3" stroke="black" points="557.79,-84.8 392.21,-84.8 392.21,-48.8 557.79,-48.8 557.79,-84.8"/>
<text text-anchor="middle" x="475" y="-62.6" font-family="Times,serif" font-size="14.00">PageAddOrderComponent</text>
</g>
<!-- OrdersModule -->
<g id="node4" class="node">
<title>OrdersModule</title>
<polygon fill="#8dd3c7" stroke="black" points="340.64,-149.8 337.64,-153.8 316.64,-153.8 313.64,-149.8 243.36,-149.8 243.36,-113.8 340.64,-113.8 340.64,-149.8"/>
<text text-anchor="middle" x="292" y="-127.6" font-family="Times,serif" font-size="14.00">OrdersModule</text>
</g>
<!-- PageAddOrderComponent&#45;&gt;OrdersModule -->
<g id="edge1" class="edge">
<title>PageAddOrderComponent&#45;&gt;OrdersModule</title>
<path fill="none" stroke="black" d="M475,-84.91C475,-104.14 475,-131.8 475,-131.8 475,-131.8 351.04,-131.8 351.04,-131.8"/>
<polygon fill="black" stroke="black" points="351.04,-128.3 341.04,-131.8 351.04,-135.3 351.04,-128.3"/>
</g>
<!-- PageEditOrderComponent -->
<g id="node2" class="node">
<title>PageEditOrderComponent</title>
<polygon fill="#ffffb3" stroke="black" points="374.02,-84.8 209.98,-84.8 209.98,-48.8 374.02,-48.8 374.02,-84.8"/>
<text text-anchor="middle" x="292" y="-62.6" font-family="Times,serif" font-size="14.00">PageEditOrderComponent</text>
</g>
<!-- PageEditOrderComponent&#45;&gt;OrdersModule -->
<g id="edge2" class="edge">
<title>PageEditOrderComponent&#45;&gt;OrdersModule</title>
<path fill="none" stroke="black" d="M292,-84.91C292,-84.91 292,-103.79 292,-103.79"/>
<polygon fill="black" stroke="black" points="288.5,-103.79 292,-113.79 295.5,-103.79 288.5,-103.79"/>
</g>
<!-- PageListOrdersComponent -->
<g id="node3" class="node">
<title>PageListOrdersComponent</title>
<polygon fill="#ffffb3" stroke="black" points="192.41,-84.8 23.59,-84.8 23.59,-48.8 192.41,-48.8 192.41,-84.8"/>
<text text-anchor="middle" x="108" y="-62.6" font-family="Times,serif" font-size="14.00">PageListOrdersComponent</text>
</g>
<!-- PageListOrdersComponent&#45;&gt;OrdersModule -->
<g id="edge3" class="edge">
<title>PageListOrdersComponent&#45;&gt;OrdersModule</title>
<path fill="none" stroke="black" d="M108,-84.91C108,-104.14 108,-131.8 108,-131.8 108,-131.8 233.17,-131.8 233.17,-131.8"/>
<polygon fill="black" stroke="black" points="233.17,-135.3 243.17,-131.8 233.17,-128.3 233.17,-135.3"/>
</g>
</g>
</svg>
