<?xml version="1.0" encoding="UTF-8" standalone="no"?>
<!DOCTYPE svg PUBLIC "-//W3C//DTD SVG 1.1//EN"
 "http://www.w3.org/Graphics/SVG/1.1/DTD/svg11.dtd">
<!-- Generated by graphviz version 2.47.3 (20210619.1520)
 -->
<!-- Title: dependencies Pages: 1 -->
<svg width="6598pt" height="253pt"
 viewBox="0.00 0.00 6598.00 252.80" xmlns="http://www.w3.org/2000/svg" xmlns:xlink="http://www.w3.org/1999/xlink">
<g id="graph0" class="graph" transform="scale(1 1) rotate(0) translate(4 248.8)">
<title>dependencies</title>
<polygon fill="white" stroke="transparent" points="-4,4 -4,-248.8 6594,-248.8 6594,4 -4,4"/>
<text text-anchor="middle" x="3295" y="-8.2" font-family="sans-serif" font-size="14.00">dependencies</text>
<g id="clust1" class="cluster">
<title>cluster_AppModule</title>
<polygon fill="none" stroke="black" stroke-dasharray="1,5" points="8,-32.8 8,-236.8 403,-236.8 403,-32.8 8,-32.8"/>
</g>
<g id="clust2" class="cluster">
<title>cluster_AppModule_declarations</title>
<polygon fill="none" stroke="black" points="16,-40.8 16,-92.8 138,-92.8 138,-40.8 16,-40.8"/>
</g>
<g id="clust4" class="cluster">
<title>cluster_AppModule_imports</title>
<polygon fill="none" stroke="black" points="146,-40.8 146,-92.8 395,-92.8 395,-40.8 146,-40.8"/>
</g>
<g id="clust6" class="cluster">
<title>cluster_AppModule_bootstrap</title>
<polygon fill="none" stroke="black" points="156,-176.8 156,-228.8 280,-228.8 280,-176.8 156,-176.8"/>
</g>
<g id="clust14" class="cluster">
<title>cluster_ClientsModule</title>
<polygon fill="none" stroke="black" stroke-dasharray="1,5" points="2563,-32.8 2563,-160.8 3437,-160.8 3437,-32.8 2563,-32.8"/>
</g>
<g id="clust15" class="cluster">
<title>cluster_ClientsModule_declarations</title>
<polygon fill="none" stroke="black" points="2571,-40.8 2571,-92.8 3125,-92.8 3125,-40.8 2571,-40.8"/>
</g>
<g id="clust19" class="cluster">
<title>cluster_ClientsModule_imports</title>
<polygon fill="none" stroke="black" points="3133,-40.8 3133,-92.8 3429,-92.8 3429,-40.8 3133,-40.8"/>
</g>
<g id="clust29" class="cluster">
<title>cluster_CoreModule</title>
<polygon fill="none" stroke="black" stroke-dasharray="1,5" points="411,-100.8 411,-168.8 1698,-168.8 1698,-100.8 411,-100.8"/>
</g>
<g id="clust30" class="cluster">
<title>cluster_CoreModule_declarations</title>
<polygon fill="none" stroke="black" points="419,-108.8 419,-160.8 815,-160.8 815,-108.8 419,-108.8"/>
</g>
<g id="clust35" class="cluster">
<title>cluster_CoreModule_exports</title>
<polygon fill="none" stroke="black" points="823,-108.8 823,-160.8 1690,-160.8 1690,-108.8 823,-108.8"/>
</g>
<g id="clust38" class="cluster">
<title>cluster_IconsModule</title>
<polygon fill="none" stroke="black" stroke-dasharray="1,5" points="4315,-32.8 4315,-236.8 4955,-236.8 4955,-32.8 4315,-32.8"/>
</g>
<g id="clust39" class="cluster">
<title>cluster_IconsModule_declarations</title>
<polygon fill="none" stroke="black" points="4330,-40.8 4330,-92.8 4940,-92.8 4940,-40.8 4330,-40.8"/>
</g>
<g id="clust45" class="cluster">
<title>cluster_IconsModule_exports</title>
<polygon fill="none" stroke="black" points="4323,-176.8 4323,-228.8 4947,-228.8 4947,-176.8 4323,-176.8"/>
</g>
<g id="clust48" class="cluster">
<title>cluster_LoginModule</title>
<polygon fill="none" stroke="black" stroke-dasharray="1,5" points="4963,-32.8 4963,-160.8 5902,-160.8 5902,-32.8 4963,-32.8"/>
</g>
<g id="clust49" class="cluster">
<title>cluster_LoginModule_declarations</title>
<polygon fill="none" stroke="black" points="5133,-40.8 5133,-92.8 5894,-92.8 5894,-40.8 5133,-40.8"/>
</g>
<g id="clust54" class="cluster">
<title>cluster_LoginModule_imports</title>
<polygon fill="none" stroke="black" points="4971,-40.8 4971,-92.8 5125,-92.8 5125,-40.8 4971,-40.8"/>
</g>
<g id="clust64" class="cluster">
<title>cluster_OrdersModule</title>
<polygon fill="none" stroke="black" stroke-dasharray="1,5" points="1706,-32.8 1706,-160.8 2555,-160.8 2555,-32.8 1706,-32.8"/>
</g>
<g id="clust65" class="cluster">
<title>cluster_OrdersModule_declarations</title>
<polygon fill="none" stroke="black" points="1997,-40.8 1997,-92.8 2547,-92.8 2547,-40.8 1997,-40.8"/>
</g>
<g id="clust69" class="cluster">
<title>cluster_OrdersModule_imports</title>
<polygon fill="none" stroke="black" points="1714,-40.8 1714,-92.8 1989,-92.8 1989,-40.8 1714,-40.8"/>
</g>
<g id="clust79" class="cluster">
<title>cluster_PageNotFoundModule</title>
<polygon fill="none" stroke="black" stroke-dasharray="1,5" points="5910,-32.8 5910,-160.8 6320,-160.8 6320,-32.8 5910,-32.8"/>
</g>
<g id="clust80" class="cluster">
<title>cluster_PageNotFoundModule_declarations</title>
<polygon fill="none" stroke="black" points="6130,-40.8 6130,-92.8 6312,-92.8 6312,-40.8 6130,-40.8"/>
</g>
<g id="clust82" class="cluster">
<title>cluster_PageNotFoundModule_imports</title>
<polygon fill="none" stroke="black" points="5918,-40.8 5918,-92.8 6122,-92.8 6122,-40.8 5918,-40.8"/>
</g>
<g id="clust98" class="cluster">
<title>cluster_TemplatesModule</title>
<polygon fill="none" stroke="black" stroke-dasharray="1,5" points="3445,-100.8 3445,-168.8 4307,-168.8 4307,-100.8 3445,-100.8"/>
</g>
<g id="clust99" class="cluster">
<title>cluster_TemplatesModule_declarations</title>
<polygon fill="none" stroke="black" points="3883,-108.8 3883,-160.8 4299,-160.8 4299,-108.8 3883,-108.8"/>
</g>
<g id="clust103" class="cluster">
<title>cluster_TemplatesModule_exports</title>
<polygon fill="none" stroke="black" points="3453,-108.8 3453,-160.8 3875,-160.8 3875,-108.8 3453,-108.8"/>
</g>
<g id="clust106" class="cluster">
<title>cluster_UiModule</title>
<polygon fill="none" stroke="black" stroke-dasharray="1,5" points="6328,-32.8 6328,-236.8 6582,-236.8 6582,-32.8 6328,-32.8"/>
</g>
<g id="clust107" class="cluster">
<title>cluster_UiModule_declarations</title>
<polygon fill="none" stroke="black" points="6339,-40.8 6339,-92.8 6571,-92.8 6571,-40.8 6339,-40.8"/>
</g>
<g id="clust111" class="cluster">
<title>cluster_UiModule_exports</title>
<polygon fill="none" stroke="black" points="6336,-176.8 6336,-228.8 6574,-228.8 6574,-176.8 6336,-176.8"/>
</g>
<!-- AppComponent -->
<g id="node1" class="node">
<title>AppComponent</title>
<polygon fill="#ffffb3" stroke="black" points="129.94,-84.8 24.06,-84.8 24.06,-48.8 129.94,-48.8 129.94,-84.8"/>
<text text-anchor="middle" x="77" y="-62.6" font-family="Times,serif" font-size="14.00">AppComponent</text>
</g>
<!-- AppModule -->
<g id="node2" class="node">
<title>AppModule</title>
<polygon fill="#8dd3c7" stroke="black" points="259.66,-152.8 256.66,-156.8 235.66,-156.8 232.66,-152.8 176.34,-152.8 176.34,-116.8 259.66,-116.8 259.66,-152.8"/>
<text text-anchor="middle" x="218" y="-130.6" font-family="Times,serif" font-size="14.00">AppModule</text>
</g>
<!-- AppComponent&#45;&gt;AppModule -->
<g id="edge1" class="edge">
<title>AppComponent&#45;&gt;AppModule</title>
<path fill="none" stroke="black" d="M77,-85.02C77,-105.17 77,-134.8 77,-134.8 77,-134.8 166.08,-134.8 166.08,-134.8"/>
<polygon fill="black" stroke="black" points="166.08,-138.3 176.08,-134.8 166.08,-131.3 166.08,-138.3"/>
</g>
<!-- AppComponent  -->
<g id="node5" class="node">
<title>AppComponent </title>
<polygon fill="#80b1d3" stroke="black" points="272.44,-220.8 163.56,-220.8 163.56,-184.8 272.44,-184.8 272.44,-220.8"/>
<text text-anchor="middle" x="218" y="-198.6" font-family="Times,serif" font-size="14.00">AppComponent </text>
</g>
<!-- AppModule&#45;&gt;AppComponent  -->
<g id="edge4" class="edge">
<title>AppModule&#45;&gt;AppComponent </title>
<path fill="none" stroke="black" stroke-dasharray="1,5" d="M218,-153.02C218,-153.02 218,-174.53 218,-174.53"/>
<polygon fill="black" stroke="black" points="214.5,-174.53 218,-184.53 221.5,-174.53 214.5,-174.53"/>
</g>
<!-- AppRoutingModule -->
<g id="node3" class="node">
<title>AppRoutingModule</title>
<polygon fill="#8dd3c7" stroke="black" points="282.27,-84.8 279.27,-88.8 258.27,-88.8 255.27,-84.8 153.73,-84.8 153.73,-48.8 282.27,-48.8 282.27,-84.8"/>
<text text-anchor="middle" x="218" y="-62.6" font-family="Times,serif" font-size="14.00">AppRoutingModule</text>
</g>
<!-- AppRoutingModule&#45;&gt;AppModule -->
<g id="edge2" class="edge">
<title>AppRoutingModule&#45;&gt;AppModule</title>
<path fill="none" stroke="black" d="M218,-85.02C218,-85.02 218,-106.53 218,-106.53"/>
<polygon fill="black" stroke="black" points="214.5,-106.53 218,-116.53 221.5,-106.53 214.5,-106.53"/>
</g>
<!-- CoreModule -->
<g id="node4" class="node">
<title>CoreModule</title>
<polygon fill="#8dd3c7" stroke="black" points="387.26,-84.8 384.26,-88.8 363.26,-88.8 360.26,-84.8 300.74,-84.8 300.74,-48.8 387.26,-48.8 387.26,-84.8"/>
<text text-anchor="middle" x="344" y="-62.6" font-family="Times,serif" font-size="14.00">CoreModule</text>
</g>
<!-- CoreModule&#45;&gt;AppModule -->
<g id="edge3" class="edge">
<title>CoreModule&#45;&gt;AppModule</title>
<path fill="none" stroke="black" d="M329.54,-85.09C329.54,-107.01 329.54,-140.8 329.54,-140.8 329.54,-140.8 269.85,-140.8 269.85,-140.8"/>
<polygon fill="black" stroke="black" points="269.85,-137.3 259.85,-140.8 269.85,-144.3 269.85,-137.3"/>
</g>
<!-- FooterComponent  -->
<g id="node15" class="node">
<title>FooterComponent </title>
<polygon fill="#fb8072" stroke="black" points="1304.88,-152.8 1183.12,-152.8 1183.12,-116.8 1304.88,-116.8 1304.88,-152.8"/>
<text text-anchor="middle" x="1244" y="-130.6" font-family="Times,serif" font-size="14.00">FooterComponent </text>
</g>
<!-- CoreModule&#45;&gt;FooterComponent  -->
<g id="edge13" class="edge">
<title>CoreModule&#45;&gt;FooterComponent </title>
<path fill="none" stroke="black" stroke-dasharray="5,2" d="M387.41,-62.8C567.19,-62.8 1244,-62.8 1244,-62.8 1244,-62.8 1244,-106.63 1244,-106.63"/>
<polygon fill="black" stroke="black" points="1240.5,-106.63 1244,-116.63 1247.5,-106.63 1240.5,-106.63"/>
</g>
<!-- HeaderComponent  -->
<g id="node16" class="node">
<title>HeaderComponent </title>
<polygon fill="#fb8072" stroke="black" points="1165.74,-152.8 1040.26,-152.8 1040.26,-116.8 1165.74,-116.8 1165.74,-152.8"/>
<text text-anchor="middle" x="1103" y="-130.6" font-family="Times,serif" font-size="14.00">HeaderComponent </text>
</g>
<!-- CoreModule&#45;&gt;HeaderComponent  -->
<g id="edge14" class="edge">
<title>CoreModule&#45;&gt;HeaderComponent </title>
<path fill="none" stroke="black" stroke-dasharray="5,2" d="M387.53,-65.8C548.81,-65.8 1103,-65.8 1103,-65.8 1103,-65.8 1103,-106.67 1103,-106.67"/>
<polygon fill="black" stroke="black" points="1099.5,-106.67 1103,-116.67 1106.5,-106.67 1099.5,-106.67"/>
</g>
<!-- IconsModule  -->
<g id="node17" class="node">
<title>IconsModule </title>
<polygon fill="#fb8072" stroke="black" points="1542.87,-152.8 1449.13,-152.8 1449.13,-116.8 1542.87,-116.8 1542.87,-152.8"/>
<text text-anchor="middle" x="1496" y="-130.6" font-family="Times,serif" font-size="14.00">IconsModule </text>
</g>
<!-- CoreModule&#45;&gt;IconsModule  -->
<g id="edge15" class="edge">
<title>CoreModule&#45;&gt;IconsModule </title>
<path fill="none" stroke="black" stroke-dasharray="5,2" d="M387.51,-55.8C595.73,-55.8 1480.44,-55.8 1480.44,-55.8 1480.44,-55.8 1480.44,-106.48 1480.44,-106.48"/>
<polygon fill="black" stroke="black" points="1476.94,-106.48 1480.44,-116.48 1483.94,-106.48 1476.94,-106.48"/>
</g>
<!-- LoginModule  -->
<g id="node18" class="node">
<title>LoginModule </title>
<polygon fill="#fb8072" stroke="black" points="927.49,-152.8 830.51,-152.8 830.51,-116.8 927.49,-116.8 927.49,-152.8"/>
<text text-anchor="middle" x="879" y="-130.6" font-family="Times,serif" font-size="14.00">LoginModule </text>
</g>
<!-- CoreModule&#45;&gt;LoginModule  -->
<g id="edge16" class="edge">
<title>CoreModule&#45;&gt;LoginModule </title>
<path fill="none" stroke="black" stroke-dasharray="5,2" d="M387.33,-71.8C514.69,-71.8 879,-71.8 879,-71.8 879,-71.8 879,-106.58 879,-106.58"/>
<polygon fill="black" stroke="black" points="875.5,-106.58 879,-116.58 882.5,-106.58 875.5,-106.58"/>
</g>
<!-- NavComponent  -->
<g id="node19" class="node">
<title>NavComponent </title>
<polygon fill="#fb8072" stroke="black" points="1431.15,-152.8 1322.85,-152.8 1322.85,-116.8 1431.15,-116.8 1431.15,-152.8"/>
<text text-anchor="middle" x="1377" y="-130.6" font-family="Times,serif" font-size="14.00">NavComponent </text>
</g>
<!-- CoreModule&#45;&gt;NavComponent  -->
<g id="edge17" class="edge">
<title>CoreModule&#45;&gt;NavComponent </title>
<path fill="none" stroke="black" stroke-dasharray="5,2" d="M387.4,-58.8C583.46,-58.8 1377,-58.8 1377,-58.8 1377,-58.8 1377,-106.79 1377,-106.79"/>
<polygon fill="black" stroke="black" points="1373.5,-106.79 1377,-116.79 1380.5,-106.79 1373.5,-106.79"/>
</g>
<!-- TemplatesModule  -->
<g id="node20" class="node">
<title>TemplatesModule </title>
<polygon fill="#fb8072" stroke="black" points="1681.86,-152.8 1560.14,-152.8 1560.14,-116.8 1681.86,-116.8 1681.86,-152.8"/>
<text text-anchor="middle" x="1621" y="-130.6" font-family="Times,serif" font-size="14.00">TemplatesModule </text>
</g>
<!-- CoreModule&#45;&gt;TemplatesModule  -->
<g id="edge18" class="edge">
<title>CoreModule&#45;&gt;TemplatesModule </title>
<path fill="none" stroke="black" stroke-dasharray="5,2" d="M387.59,-52.8C611.4,-52.8 1621,-52.8 1621,-52.8 1621,-52.8 1621,-106.6 1621,-106.6"/>
<polygon fill="black" stroke="black" points="1617.5,-106.6 1621,-116.6 1624.5,-106.6 1617.5,-106.6"/>
</g>
<!-- UiModule  -->
<g id="node21" class="node">
<title>UiModule </title>
<polygon fill="#fb8072" stroke="black" points="1022.55,-152.8 945.45,-152.8 945.45,-116.8 1022.55,-116.8 1022.55,-152.8"/>
<text text-anchor="middle" x="984" y="-130.6" font-family="Times,serif" font-size="14.00">UiModule </text>
</g>
<!-- CoreModule&#45;&gt;UiModule  -->
<g id="edge19" class="edge">
<title>CoreModule&#45;&gt;UiModule </title>
<path fill="none" stroke="black" stroke-dasharray="5,2" d="M387.49,-68.8C531.53,-68.8 984,-68.8 984,-68.8 984,-68.8 984,-106.77 984,-106.77"/>
<polygon fill="black" stroke="black" points="980.5,-106.77 984,-116.77 987.5,-106.77 980.5,-106.77"/>
</g>
<!-- PageAddClientComponent -->
<g id="node6" class="node">
<title>PageAddClientComponent</title>
<polygon fill="#ffffb3" stroke="black" points="2929.37,-84.8 2762.63,-84.8 2762.63,-48.8 2929.37,-48.8 2929.37,-84.8"/>
<text text-anchor="middle" x="2846" y="-62.6" font-family="Times,serif" font-size="14.00">PageAddClientComponent</text>
</g>
<!-- ClientsModule -->
<g id="node9" class="node">
<title>ClientsModule</title>
<polygon fill="#8dd3c7" stroke="black" points="3081.72,-152.8 3078.72,-156.8 3057.72,-156.8 3054.72,-152.8 2982.28,-152.8 2982.28,-116.8 3081.72,-116.8 3081.72,-152.8"/>
<text text-anchor="middle" x="3032" y="-130.6" font-family="Times,serif" font-size="14.00">ClientsModule</text>
</g>
<!-- PageAddClientComponent&#45;&gt;ClientsModule -->
<g id="edge5" class="edge">
<title>PageAddClientComponent&#45;&gt;ClientsModule</title>
<path fill="none" stroke="black" d="M2846,-84.83C2846,-101.86 2846,-124.8 2846,-124.8 2846,-124.8 2972.16,-124.8 2972.16,-124.8"/>
<polygon fill="black" stroke="black" points="2972.16,-128.3 2982.16,-124.8 2972.16,-121.3 2972.16,-128.3"/>
</g>
<!-- PageEditClientComponent -->
<g id="node7" class="node">
<title>PageEditClientComponent</title>
<polygon fill="#ffffb3" stroke="black" points="2745.1,-84.8 2578.9,-84.8 2578.9,-48.8 2745.1,-48.8 2745.1,-84.8"/>
<text text-anchor="middle" x="2662" y="-62.6" font-family="Times,serif" font-size="14.00">PageEditClientComponent</text>
</g>
<!-- PageEditClientComponent&#45;&gt;ClientsModule -->
<g id="edge6" class="edge">
<title>PageEditClientComponent&#45;&gt;ClientsModule</title>
<path fill="none" stroke="black" d="M2662,-84.91C2662,-104.14 2662,-131.8 2662,-131.8 2662,-131.8 2972.1,-131.8 2972.1,-131.8"/>
<polygon fill="black" stroke="black" points="2972.1,-135.3 2982.1,-131.8 2972.1,-128.3 2972.1,-135.3"/>
</g>
<!-- PageListClientsComponent -->
<g id="node8" class="node">
<title>PageListClientsComponent</title>
<polygon fill="#ffffb3" stroke="black" points="3116.99,-84.8 2947.01,-84.8 2947.01,-48.8 3116.99,-48.8 3116.99,-84.8"/>
<text text-anchor="middle" x="3032" y="-62.6" font-family="Times,serif" font-size="14.00">PageListClientsComponent</text>
</g>
<!-- PageListClientsComponent&#45;&gt;ClientsModule -->
<g id="edge7" class="edge">
<title>PageListClientsComponent&#45;&gt;ClientsModule</title>
<path fill="none" stroke="black" d="M3032,-85.02C3032,-85.02 3032,-106.53 3032,-106.53"/>
<polygon fill="black" stroke="black" points="3028.5,-106.53 3032,-116.53 3035.5,-106.53 3028.5,-106.53"/>
</g>
<!-- ClientsRoutingModule -->
<g id="node10" class="node">
<title>ClientsRoutingModule</title>
<polygon fill="#8dd3c7" stroke="black" points="3285.34,-84.8 3282.34,-88.8 3261.34,-88.8 3258.34,-84.8 3140.66,-84.8 3140.66,-48.8 3285.34,-48.8 3285.34,-84.8"/>
<text text-anchor="middle" x="3213" y="-62.6" font-family="Times,serif" font-size="14.00">ClientsRoutingModule</text>
</g>
<!-- ClientsRoutingModule&#45;&gt;ClientsModule -->
<g id="edge8" class="edge">
<title>ClientsRoutingModule&#45;&gt;ClientsModule</title>
<path fill="none" stroke="black" d="M3213,-85.02C3213,-105.17 3213,-134.8 3213,-134.8 3213,-134.8 3091.94,-134.8 3091.94,-134.8"/>
<polygon fill="black" stroke="black" points="3091.94,-131.3 3081.94,-134.8 3091.94,-138.3 3091.94,-131.3"/>
</g>
<!-- TemplatesModule -->
<g id="node11" class="node">
<title>TemplatesModule</title>
<polygon fill="#8dd3c7" stroke="black" points="3420.86,-84.8 3417.86,-88.8 3396.86,-88.8 3393.86,-84.8 3303.14,-84.8 3303.14,-48.8 3420.86,-48.8 3420.86,-84.8"/>
<text text-anchor="middle" x="3362" y="-62.6" font-family="Times,serif" font-size="14.00">TemplatesModule</text>
</g>
<!-- TemplatesModule&#45;&gt;ClientsModule -->
<g id="edge9" class="edge">
<title>TemplatesModule&#45;&gt;ClientsModule</title>
<path fill="none" stroke="black" d="M3342.36,-85.05C3342.36,-107.82 3342.36,-143.8 3342.36,-143.8 3342.36,-143.8 3091.86,-143.8 3091.86,-143.8"/>
<polygon fill="black" stroke="black" points="3091.86,-140.3 3081.86,-143.8 3091.86,-147.3 3091.86,-140.3"/>
</g>
<!-- TemplateContainerComponent  -->
<g id="node48" class="node">
<title>TemplateContainerComponent </title>
<polygon fill="#fb8072" stroke="black" points="3867.41,-152.8 3674.59,-152.8 3674.59,-116.8 3867.41,-116.8 3867.41,-152.8"/>
<text text-anchor="middle" x="3771" y="-130.6" font-family="Times,serif" font-size="14.00">TemplateContainerComponent </text>
</g>
<!-- TemplatesModule&#45;&gt;TemplateContainerComponent  -->
<g id="edge44" class="edge">
<title>TemplatesModule&#45;&gt;TemplateContainerComponent </title>
<path fill="none" stroke="black" stroke-dasharray="5,2" d="M3421.04,-75.8C3534.3,-75.8 3771,-75.8 3771,-75.8 3771,-75.8 3771,-106.78 3771,-106.78"/>
<polygon fill="black" stroke="black" points="3767.5,-106.78 3771,-116.78 3774.5,-106.78 3767.5,-106.78"/>
</g>
<!-- TemplateFullWidthComponent  -->
<g id="node49" class="node">
<title>TemplateFullWidthComponent </title>
<polygon fill="#fb8072" stroke="black" points="3656.76,-152.8 3461.24,-152.8 3461.24,-116.8 3656.76,-116.8 3656.76,-152.8"/>
<text text-anchor="middle" x="3559" y="-130.6" font-family="Times,serif" font-size="14.00">TemplateFullWidthComponent </text>
</g>
<!-- TemplatesModule&#45;&gt;TemplateFullWidthComponent  -->
<g id="edge45" class="edge">
<title>TemplatesModule&#45;&gt;TemplateFullWidthComponent </title>
<path fill="none" stroke="black" stroke-dasharray="5,2" d="M3381.64,-84.82C3381.64,-102.17 3381.64,-125.8 3381.64,-125.8 3381.64,-125.8 3451.24,-125.8 3451.24,-125.8"/>
<polygon fill="black" stroke="black" points="3451.24,-129.3 3461.24,-125.8 3451.24,-122.3 3451.24,-129.3"/>
</g>
<!-- FooterComponent -->
<g id="node12" class="node">
<title>FooterComponent</title>
<polygon fill="#ffffb3" stroke="black" points="806.88,-152.8 689.12,-152.8 689.12,-116.8 806.88,-116.8 806.88,-152.8"/>
<text text-anchor="middle" x="748" y="-130.6" font-family="Times,serif" font-size="14.00">FooterComponent</text>
</g>
<!-- FooterComponent&#45;&gt;CoreModule -->
<g id="edge10" class="edge">
<title>FooterComponent&#45;&gt;CoreModule</title>
<path fill="none" stroke="black" d="M748,-116.78C748,-99.43 748,-75.8 748,-75.8 748,-75.8 397.62,-75.8 397.62,-75.8"/>
<polygon fill="black" stroke="black" points="397.62,-72.3 387.62,-75.8 397.62,-79.3 397.62,-72.3"/>
</g>
<!-- HeaderComponent -->
<g id="node13" class="node">
<title>HeaderComponent</title>
<polygon fill="#ffffb3" stroke="black" points="670.74,-152.8 549.26,-152.8 549.26,-116.8 670.74,-116.8 670.74,-152.8"/>
<text text-anchor="middle" x="610" y="-130.6" font-family="Times,serif" font-size="14.00">HeaderComponent</text>
</g>
<!-- HeaderComponent&#45;&gt;CoreModule -->
<g id="edge11" class="edge">
<title>HeaderComponent&#45;&gt;CoreModule</title>
<path fill="none" stroke="black" d="M610,-116.56C610,-101.23 610,-81.8 610,-81.8 610,-81.8 397.33,-81.8 397.33,-81.8"/>
<polygon fill="black" stroke="black" points="397.33,-78.3 387.33,-81.8 397.33,-85.3 397.33,-78.3"/>
</g>
<!-- NavComponent -->
<g id="node14" class="node">
<title>NavComponent</title>
<polygon fill="#ffffb3" stroke="black" points="531.15,-152.8 426.85,-152.8 426.85,-116.8 531.15,-116.8 531.15,-152.8"/>
<text text-anchor="middle" x="479" y="-130.6" font-family="Times,serif" font-size="14.00">NavComponent</text>
</g>
<!-- NavComponent&#45;&gt;CoreModule -->
<g id="edge12" class="edge">
<title>NavComponent&#45;&gt;CoreModule</title>
<path fill="none" stroke="black" d="M426.83,-128.8C394.25,-128.8 358.46,-128.8 358.46,-128.8 358.46,-128.8 358.46,-95.07 358.46,-95.07"/>
<polygon fill="black" stroke="black" points="361.96,-95.07 358.46,-85.07 354.96,-95.07 361.96,-95.07"/>
</g>
<!-- IconCloseComponent -->
<g id="node22" class="node">
<title>IconCloseComponent</title>
<polygon fill="#ffffb3" stroke="black" points="4932.09,-84.8 4793.91,-84.8 4793.91,-48.8 4932.09,-48.8 4932.09,-84.8"/>
<text text-anchor="middle" x="4863" y="-62.6" font-family="Times,serif" font-size="14.00">IconCloseComponent</text>
</g>
<!-- IconsModule -->
<g id="node26" class="node">
<title>IconsModule</title>
<polygon fill="#8dd3c7" stroke="black" points="4679.87,-152.8 4676.87,-156.8 4655.87,-156.8 4652.87,-152.8 4590.13,-152.8 4590.13,-116.8 4679.87,-116.8 4679.87,-152.8"/>
<text text-anchor="middle" x="4635" y="-130.6" font-family="Times,serif" font-size="14.00">IconsModule</text>
</g>
<!-- IconCloseComponent&#45;&gt;IconsModule -->
<g id="edge20" class="edge">
<title>IconCloseComponent&#45;&gt;IconsModule</title>
<path fill="none" stroke="black" d="M4799.72,-84.83C4799.72,-101.86 4799.72,-124.8 4799.72,-124.8 4799.72,-124.8 4690.01,-124.8 4690.01,-124.8"/>
<polygon fill="black" stroke="black" points="4690.01,-121.3 4680.01,-124.8 4690.01,-128.3 4690.01,-121.3"/>
</g>
<!-- IconDeleteComponent -->
<g id="node23" class="node">
<title>IconDeleteComponent</title>
<polygon fill="#ffffb3" stroke="black" points="4776.24,-84.8 4633.76,-84.8 4633.76,-48.8 4776.24,-48.8 4776.24,-84.8"/>
<text text-anchor="middle" x="4705" y="-62.6" font-family="Times,serif" font-size="14.00">IconDeleteComponent</text>
</g>
<!-- IconDeleteComponent&#45;&gt;IconsModule -->
<g id="edge21" class="edge">
<title>IconDeleteComponent&#45;&gt;IconsModule</title>
<path fill="none" stroke="black" d="M4656.78,-85.02C4656.78,-85.02 4656.78,-106.53 4656.78,-106.53"/>
<polygon fill="black" stroke="black" points="4653.28,-106.53 4656.78,-116.53 4660.28,-106.53 4653.28,-106.53"/>
</g>
<!-- IconEditComponent -->
<g id="node24" class="node">
<title>IconEditComponent</title>
<polygon fill="#ffffb3" stroke="black" points="4615.54,-84.8 4486.46,-84.8 4486.46,-48.8 4615.54,-48.8 4615.54,-84.8"/>
<text text-anchor="middle" x="4551" y="-62.6" font-family="Times,serif" font-size="14.00">IconEditComponent</text>
</g>
<!-- IconEditComponent&#45;&gt;IconsModule -->
<g id="edge22" class="edge">
<title>IconEditComponent&#45;&gt;IconsModule</title>
<path fill="none" stroke="black" d="M4602.92,-85.02C4602.92,-85.02 4602.92,-106.53 4602.92,-106.53"/>
<polygon fill="black" stroke="black" points="4599.42,-106.53 4602.92,-116.53 4606.42,-106.53 4599.42,-106.53"/>
</g>
<!-- IconNavComponent -->
<g id="node25" class="node">
<title>IconNavComponent</title>
<polygon fill="#ffffb3" stroke="black" points="4467.53,-84.8 4338.47,-84.8 4338.47,-48.8 4467.53,-48.8 4467.53,-84.8"/>
<text text-anchor="middle" x="4403" y="-62.6" font-family="Times,serif" font-size="14.00">IconNavComponent</text>
</g>
<!-- IconNavComponent&#45;&gt;IconsModule -->
<g id="edge23" class="edge">
<title>IconNavComponent&#45;&gt;IconsModule</title>
<path fill="none" stroke="black" d="M4403,-85.07C4403,-103.36 4403,-128.8 4403,-128.8 4403,-128.8 4579.99,-128.8 4579.99,-128.8"/>
<polygon fill="black" stroke="black" points="4579.99,-132.3 4589.99,-128.8 4579.99,-125.3 4579.99,-132.3"/>
</g>
<!-- IconCloseComponent  -->
<g id="node27" class="node">
<title>IconCloseComponent </title>
<polygon fill="#fb8072" stroke="black" points="4636.59,-220.8 4495.41,-220.8 4495.41,-184.8 4636.59,-184.8 4636.59,-220.8"/>
<text text-anchor="middle" x="4566" y="-198.6" font-family="Times,serif" font-size="14.00">IconCloseComponent </text>
</g>
<!-- IconsModule&#45;&gt;IconCloseComponent  -->
<g id="edge24" class="edge">
<title>IconsModule&#45;&gt;IconCloseComponent </title>
<path fill="none" stroke="black" stroke-dasharray="5,2" d="M4613.43,-153.02C4613.43,-153.02 4613.43,-174.53 4613.43,-174.53"/>
<polygon fill="black" stroke="black" points="4609.93,-174.53 4613.43,-184.53 4616.93,-174.53 4609.93,-174.53"/>
</g>
<!-- IconDeleteComponent  -->
<g id="node28" class="node">
<title>IconDeleteComponent </title>
<polygon fill="#fb8072" stroke="black" points="4477.24,-220.8 4330.76,-220.8 4330.76,-184.8 4477.24,-184.8 4477.24,-220.8"/>
<text text-anchor="middle" x="4404" y="-198.6" font-family="Times,serif" font-size="14.00">IconDeleteComponent </text>
</g>
<!-- IconsModule&#45;&gt;IconDeleteComponent  -->
<g id="edge25" class="edge">
<title>IconsModule&#45;&gt;IconDeleteComponent </title>
<path fill="none" stroke="black" stroke-dasharray="5,2" d="M4589.72,-140.8C4541.62,-140.8 4472.44,-140.8 4472.44,-140.8 4472.44,-140.8 4472.44,-174.53 4472.44,-174.53"/>
<polygon fill="black" stroke="black" points="4468.94,-174.53 4472.44,-184.53 4475.94,-174.53 4468.94,-174.53"/>
</g>
<!-- IconEditComponent  -->
<g id="node29" class="node">
<title>IconEditComponent </title>
<polygon fill="#fb8072" stroke="black" points="4938.54,-220.8 4805.46,-220.8 4805.46,-184.8 4938.54,-184.8 4938.54,-220.8"/>
<text text-anchor="middle" x="4872" y="-198.6" font-family="Times,serif" font-size="14.00">IconEditComponent </text>
</g>
<!-- IconsModule&#45;&gt;IconEditComponent  -->
<g id="edge26" class="edge">
<title>IconsModule&#45;&gt;IconEditComponent </title>
<path fill="none" stroke="black" stroke-dasharray="5,2" d="M4680.07,-131.8C4748,-131.8 4868.76,-131.8 4868.76,-131.8 4868.76,-131.8 4868.76,-174.52 4868.76,-174.52"/>
<polygon fill="black" stroke="black" points="4865.26,-174.52 4868.76,-184.52 4872.26,-174.52 4865.26,-174.52"/>
</g>
<!-- IconNavComponent  -->
<g id="node30" class="node">
<title>IconNavComponent </title>
<polygon fill="#fb8072" stroke="black" points="4787.53,-220.8 4654.47,-220.8 4654.47,-184.8 4787.53,-184.8 4787.53,-220.8"/>
<text text-anchor="middle" x="4721" y="-198.6" font-family="Times,serif" font-size="14.00">IconNavComponent </text>
</g>
<!-- IconsModule&#45;&gt;IconNavComponent  -->
<g id="edge27" class="edge">
<title>IconsModule&#45;&gt;IconNavComponent </title>
<path fill="none" stroke="black" stroke-dasharray="5,2" d="M4667.21,-153.02C4667.21,-153.02 4667.21,-174.53 4667.21,-174.53"/>
<polygon fill="black" stroke="black" points="4663.71,-174.53 4667.21,-184.53 4670.71,-174.53 4663.71,-174.53"/>
</g>
<!-- PageForgotPasswordComponent -->
<g id="node31" class="node">
<title>PageForgotPasswordComponent</title>
<polygon fill="#ffffb3" stroke="black" points="5885.53,-84.8 5686.47,-84.8 5686.47,-48.8 5885.53,-48.8 5885.53,-84.8"/>
<text text-anchor="middle" x="5786" y="-62.6" font-family="Times,serif" font-size="14.00">PageForgotPasswordComponent</text>
</g>
<!-- LoginModule -->
<g id="node35" class="node">
<title>LoginModule</title>
<polygon fill="#8dd3c7" stroke="black" points="5430.49,-152.8 5427.49,-156.8 5406.49,-156.8 5403.49,-152.8 5337.51,-152.8 5337.51,-116.8 5430.49,-116.8 5430.49,-152.8"/>
<text text-anchor="middle" x="5384" y="-130.6" font-family="Times,serif" font-size="14.00">LoginModule</text>
</g>
<!-- PageForgotPasswordComponent&#45;&gt;LoginModule -->
<g id="edge28" class="edge">
<title>PageForgotPasswordComponent&#45;&gt;LoginModule</title>
<path fill="none" stroke="black" d="M5786,-85.09C5786,-107.01 5786,-140.8 5786,-140.8 5786,-140.8 5440.51,-140.8 5440.51,-140.8"/>
<polygon fill="black" stroke="black" points="5440.51,-137.3 5430.51,-140.8 5440.51,-144.3 5440.51,-137.3"/>
</g>
<!-- PageResetPasswordComponent -->
<g id="node32" class="node">
<title>PageResetPasswordComponent</title>
<polygon fill="#ffffb3" stroke="black" points="5668.8,-84.8 5475.2,-84.8 5475.2,-48.8 5668.8,-48.8 5668.8,-84.8"/>
<text text-anchor="middle" x="5572" y="-62.6" font-family="Times,serif" font-size="14.00">PageResetPasswordComponent</text>
</g>
<!-- PageResetPasswordComponent&#45;&gt;LoginModule -->
<g id="edge29" class="edge">
<title>PageResetPasswordComponent&#45;&gt;LoginModule</title>
<path fill="none" stroke="black" d="M5572,-85.07C5572,-103.36 5572,-128.8 5572,-128.8 5572,-128.8 5440.96,-128.8 5440.96,-128.8"/>
<polygon fill="black" stroke="black" points="5440.96,-125.3 5430.96,-128.8 5440.96,-132.3 5440.96,-125.3"/>
</g>
<!-- PageSignInComponent -->
<g id="node33" class="node">
<title>PageSignInComponent</title>
<polygon fill="#ffffb3" stroke="black" points="5456.88,-84.8 5311.12,-84.8 5311.12,-48.8 5456.88,-48.8 5456.88,-84.8"/>
<text text-anchor="middle" x="5384" y="-62.6" font-family="Times,serif" font-size="14.00">PageSignInComponent</text>
</g>
<!-- PageSignInComponent&#45;&gt;LoginModule -->
<g id="edge30" class="edge">
<title>PageSignInComponent&#45;&gt;LoginModule</title>
<path fill="none" stroke="black" d="M5384,-85.02C5384,-85.02 5384,-106.53 5384,-106.53"/>
<polygon fill="black" stroke="black" points="5380.5,-106.53 5384,-116.53 5387.5,-106.53 5380.5,-106.53"/>
</g>
<!-- PageSignUpComponent -->
<g id="node34" class="node">
<title>PageSignUpComponent</title>
<polygon fill="#ffffb3" stroke="black" points="5292.82,-84.8 5141.18,-84.8 5141.18,-48.8 5292.82,-48.8 5292.82,-84.8"/>
<text text-anchor="middle" x="5217" y="-62.6" font-family="Times,serif" font-size="14.00">PageSignUpComponent</text>
</g>
<!-- PageSignUpComponent&#45;&gt;LoginModule -->
<g id="edge31" class="edge">
<title>PageSignUpComponent&#45;&gt;LoginModule</title>
<path fill="none" stroke="black" d="M5217,-84.97C5217,-106.3 5217,-138.8 5217,-138.8 5217,-138.8 5327.48,-138.8 5327.48,-138.8"/>
<polygon fill="black" stroke="black" points="5327.48,-142.3 5337.48,-138.8 5327.48,-135.3 5327.48,-142.3"/>
</g>
<!-- LoginRoutingModule -->
<g id="node36" class="node">
<title>LoginRoutingModule</title>
<polygon fill="#8dd3c7" stroke="black" points="5117.11,-84.8 5114.11,-88.8 5093.11,-88.8 5090.11,-84.8 4978.89,-84.8 4978.89,-48.8 5117.11,-48.8 5117.11,-84.8"/>
<text text-anchor="middle" x="5048" y="-62.6" font-family="Times,serif" font-size="14.00">LoginRoutingModule</text>
</g>
<!-- LoginRoutingModule&#45;&gt;LoginModule -->
<g id="edge32" class="edge">
<title>LoginRoutingModule&#45;&gt;LoginModule</title>
<path fill="none" stroke="black" d="M5048,-85.12C5048,-108.46 5048,-145.8 5048,-145.8 5048,-145.8 5327.28,-145.8 5327.28,-145.8"/>
<polygon fill="black" stroke="black" points="5327.28,-149.3 5337.28,-145.8 5327.28,-142.3 5327.28,-149.3"/>
</g>
<!-- PageAddOrderComponent -->
<g id="node37" class="node">
<title>PageAddOrderComponent</title>
<polygon fill="#ffffb3" stroke="black" points="2352.79,-84.8 2187.21,-84.8 2187.21,-48.8 2352.79,-48.8 2352.79,-84.8"/>
<text text-anchor="middle" x="2270" y="-62.6" font-family="Times,serif" font-size="14.00">PageAddOrderComponent</text>
</g>
<!-- OrdersModule -->
<g id="node40" class="node">
<title>OrdersModule</title>
<polygon fill="#8dd3c7" stroke="black" points="2135.64,-152.8 2132.64,-156.8 2111.64,-156.8 2108.64,-152.8 2038.36,-152.8 2038.36,-116.8 2135.64,-116.8 2135.64,-152.8"/>
<text text-anchor="middle" x="2087" y="-130.6" font-family="Times,serif" font-size="14.00">OrdersModule</text>
</g>
<!-- PageAddOrderComponent&#45;&gt;OrdersModule -->
<g id="edge33" class="edge">
<title>PageAddOrderComponent&#45;&gt;OrdersModule</title>
<path fill="none" stroke="black" d="M2270,-84.97C2270,-106.3 2270,-138.8 2270,-138.8 2270,-138.8 2146.04,-138.8 2146.04,-138.8"/>
<polygon fill="black" stroke="black" points="2146.04,-135.3 2136.04,-138.8 2146.04,-142.3 2146.04,-135.3"/>
</g>
<!-- PageEditOrderComponent -->
<g id="node38" class="node">
<title>PageEditOrderComponent</title>
<polygon fill="#ffffb3" stroke="black" points="2169.02,-84.8 2004.98,-84.8 2004.98,-48.8 2169.02,-48.8 2169.02,-84.8"/>
<text text-anchor="middle" x="2087" y="-62.6" font-family="Times,serif" font-size="14.00">PageEditOrderComponent</text>
</g>
<!-- PageEditOrderComponent&#45;&gt;OrdersModule -->
<g id="edge34" class="edge">
<title>PageEditOrderComponent&#45;&gt;OrdersModule</title>
<path fill="none" stroke="black" d="M2087,-85.02C2087,-85.02 2087,-106.53 2087,-106.53"/>
<polygon fill="black" stroke="black" points="2083.5,-106.53 2087,-116.53 2090.5,-106.53 2083.5,-106.53"/>
</g>
<!-- PageListOrdersComponent -->
<g id="node39" class="node">
<title>PageListOrdersComponent</title>
<polygon fill="#ffffb3" stroke="black" points="2539.41,-84.8 2370.59,-84.8 2370.59,-48.8 2539.41,-48.8 2539.41,-84.8"/>
<text text-anchor="middle" x="2455" y="-62.6" font-family="Times,serif" font-size="14.00">PageListOrdersComponent</text>
</g>
<!-- PageListOrdersComponent&#45;&gt;OrdersModule -->
<g id="edge35" class="edge">
<title>PageListOrdersComponent&#45;&gt;OrdersModule</title>
<path fill="none" stroke="black" d="M2455,-85.12C2455,-108.46 2455,-145.8 2455,-145.8 2455,-145.8 2145.87,-145.8 2145.87,-145.8"/>
<polygon fill="black" stroke="black" points="2145.87,-142.3 2135.87,-145.8 2145.87,-149.3 2145.87,-142.3"/>
</g>
<!-- OrdersRoutingModule -->
<g id="node41" class="node">
<title>OrdersRoutingModule</title>
<polygon fill="#8dd3c7" stroke="black" points="1981.25,-84.8 1978.25,-88.8 1957.25,-88.8 1954.25,-84.8 1838.75,-84.8 1838.75,-48.8 1981.25,-48.8 1981.25,-84.8"/>
<text text-anchor="middle" x="1910" y="-62.6" font-family="Times,serif" font-size="14.00">OrdersRoutingModule</text>
</g>
<!-- OrdersRoutingModule&#45;&gt;OrdersModule -->
<g id="edge36" class="edge">
<title>OrdersRoutingModule&#45;&gt;OrdersModule</title>
<path fill="none" stroke="black" d="M1910,-84.82C1910,-102.17 1910,-125.8 1910,-125.8 1910,-125.8 2028.17,-125.8 2028.17,-125.8"/>
<polygon fill="black" stroke="black" points="2028.17,-129.3 2038.17,-125.8 2028.17,-122.3 2028.17,-129.3"/>
</g>
<!-- SharedModule -->
<g id="node42" class="node">
<title>SharedModule</title>
<polygon fill="#8dd3c7" stroke="black" points="1820.42,-84.8 1817.42,-88.8 1796.42,-88.8 1793.42,-84.8 1721.58,-84.8 1721.58,-48.8 1820.42,-48.8 1820.42,-84.8"/>
<text text-anchor="middle" x="1771" y="-62.6" font-family="Times,serif" font-size="14.00">SharedModule</text>
</g>
<!-- SharedModule&#45;&gt;IconsModule  -->
<g id="edge40" class="edge">
<title>SharedModule&#45;&gt;IconsModule </title>
<path fill="none" stroke="black" stroke-dasharray="5,2" d="M1721.59,-78.8C1646.32,-78.8 1511.56,-78.8 1511.56,-78.8 1511.56,-78.8 1511.56,-106.77 1511.56,-106.77"/>
<polygon fill="black" stroke="black" points="1508.06,-106.77 1511.56,-116.77 1515.06,-106.77 1508.06,-106.77"/>
</g>
<!-- SharedModule&#45;&gt;TemplatesModule  -->
<g id="edge41" class="edge">
<title>SharedModule&#45;&gt;TemplatesModule </title>
<path fill="none" stroke="black" stroke-dasharray="5,2" d="M1754.6,-85.05C1754.6,-107.82 1754.6,-143.8 1754.6,-143.8 1754.6,-143.8 1691.93,-143.8 1691.93,-143.8"/>
<polygon fill="black" stroke="black" points="1691.93,-140.3 1681.93,-143.8 1691.93,-147.3 1691.93,-140.3"/>
</g>
<!-- SharedModule&#45;&gt;OrdersModule -->
<g id="edge37" class="edge">
<title>SharedModule&#45;&gt;OrdersModule</title>
<path fill="none" stroke="black" d="M1787.4,-85.02C1787.4,-105.17 1787.4,-134.8 1787.4,-134.8 1787.4,-134.8 2028.2,-134.8 2028.2,-134.8"/>
<polygon fill="black" stroke="black" points="2028.2,-138.3 2038.2,-134.8 2028.2,-131.3 2028.2,-138.3"/>
</g>
<!-- PageNotFoundComponent -->
<g id="node43" class="node">
<title>PageNotFoundComponent</title>
<polygon fill="#ffffb3" stroke="black" points="6303.82,-84.8 6138.18,-84.8 6138.18,-48.8 6303.82,-48.8 6303.82,-84.8"/>
<text text-anchor="middle" x="6221" y="-62.6" font-family="Times,serif" font-size="14.00">PageNotFoundComponent</text>
</g>
<!-- PageNotFoundModule -->
<g id="node44" class="node">
<title>PageNotFoundModule</title>
<polygon fill="#8dd3c7" stroke="black" points="6191.54,-152.8 6188.54,-156.8 6167.54,-156.8 6164.54,-152.8 6048.46,-152.8 6048.46,-116.8 6191.54,-116.8 6191.54,-152.8"/>
<text text-anchor="middle" x="6120" y="-130.6" font-family="Times,serif" font-size="14.00">PageNotFoundModule</text>
</g>
<!-- PageNotFoundComponent&#45;&gt;PageNotFoundModule -->
<g id="edge38" class="edge">
<title>PageNotFoundComponent&#45;&gt;PageNotFoundModule</title>
<path fill="none" stroke="black" d="M6165.05,-85.02C6165.05,-85.02 6165.05,-106.53 6165.05,-106.53"/>
<polygon fill="black" stroke="black" points="6161.55,-106.53 6165.05,-116.53 6168.55,-106.53 6161.55,-106.53"/>
</g>
<!-- PageNotFoundRoutingModule -->
<g id="node45" class="node">
<title>PageNotFoundRoutingModule</title>
<polygon fill="#8dd3c7" stroke="black" points="6114.16,-84.8 6111.16,-88.8 6090.16,-88.8 6087.16,-84.8 5925.84,-84.8 5925.84,-48.8 6114.16,-48.8 6114.16,-84.8"/>
<text text-anchor="middle" x="6020" y="-62.6" font-family="Times,serif" font-size="14.00">PageNotFoundRoutingModule</text>
</g>
<!-- PageNotFoundRoutingModule&#45;&gt;PageNotFoundModule -->
<g id="edge39" class="edge">
<title>PageNotFoundRoutingModule&#45;&gt;PageNotFoundModule</title>
<path fill="none" stroke="black" d="M6081.28,-85.02C6081.28,-85.02 6081.28,-106.53 6081.28,-106.53"/>
<polygon fill="black" stroke="black" points="6077.78,-106.53 6081.28,-116.53 6084.78,-106.53 6077.78,-106.53"/>
</g>
<!-- TemplateContainerComponent -->
<g id="node46" class="node">
<title>TemplateContainerComponent</title>
<polygon fill="#ffffb3" stroke="black" points="4290.91,-152.8 4101.09,-152.8 4101.09,-116.8 4290.91,-116.8 4290.91,-152.8"/>
<text text-anchor="middle" x="4196" y="-130.6" font-family="Times,serif" font-size="14.00">TemplateContainerComponent</text>
</g>
<!-- TemplateContainerComponent&#45;&gt;TemplatesModule -->
<g id="edge42" class="edge">
<title>TemplateContainerComponent&#45;&gt;TemplatesModule</title>
<path fill="none" stroke="black" d="M4196,-116.55C4196,-93.78 4196,-57.8 4196,-57.8 4196,-57.8 3430.98,-57.8 3430.98,-57.8"/>
<polygon fill="black" stroke="black" points="3430.98,-54.3 3420.98,-57.8 3430.98,-61.3 3430.98,-54.3"/>
</g>
<!-- TemplateFullWidthComponent -->
<g id="node47" class="node">
<title>TemplateFullWidthComponent</title>
<polygon fill="#ffffb3" stroke="black" points="4082.76,-152.8 3891.24,-152.8 3891.24,-116.8 4082.76,-116.8 4082.76,-152.8"/>
<text text-anchor="middle" x="3987" y="-130.6" font-family="Times,serif" font-size="14.00">TemplateFullWidthComponent</text>
</g>
<!-- TemplateFullWidthComponent&#45;&gt;TemplatesModule -->
<g id="edge43" class="edge">
<title>TemplateFullWidthComponent&#45;&gt;TemplatesModule</title>
<path fill="none" stroke="black" d="M3987,-116.58C3987,-96.43 3987,-66.8 3987,-66.8 3987,-66.8 3431.08,-66.8 3431.08,-66.8"/>
<polygon fill="black" stroke="black" points="3431.08,-63.3 3421.08,-66.8 3431.08,-70.3 3431.08,-63.3"/>
</g>
<!-- Ui2Component -->
<g id="node50" class="node">
<title>Ui2Component</title>
<polygon fill="#ffffb3" stroke="black" points="6563.33,-84.8 6460.67,-84.8 6460.67,-48.8 6563.33,-48.8 6563.33,-84.8"/>
<text text-anchor="middle" x="6512" y="-62.6" font-family="Times,serif" font-size="14.00">Ui2Component</text>
</g>
<!-- UiModule -->
<g id="node52" class="node">
<title>UiModule</title>
<polygon fill="#8dd3c7" stroke="black" points="6431.55,-152.8 6428.55,-156.8 6407.55,-156.8 6404.55,-152.8 6358.45,-152.8 6358.45,-116.8 6431.55,-116.8 6431.55,-152.8"/>
<text text-anchor="middle" x="6395" y="-130.6" font-family="Times,serif" font-size="14.00">UiModule</text>
</g>
<!-- Ui2Component&#45;&gt;UiModule -->
<g id="edge46" class="edge">
<title>Ui2Component&#45;&gt;UiModule</title>
<path fill="none" stroke="black" d="M6529.05,-85.07C6529.05,-103.36 6529.05,-128.8 6529.05,-128.8 6529.05,-128.8 6441.63,-128.8 6441.63,-128.8"/>
<polygon fill="black" stroke="black" points="6441.63,-125.3 6431.63,-128.8 6441.63,-132.3 6441.63,-125.3"/>
</g>
<!-- UiComponent -->
<g id="node51" class="node">
<title>UiComponent</title>
<polygon fill="#ffffb3" stroke="black" points="6442.83,-84.8 6347.17,-84.8 6347.17,-48.8 6442.83,-48.8 6442.83,-84.8"/>
<text text-anchor="middle" x="6395" y="-62.6" font-family="Times,serif" font-size="14.00">UiComponent</text>
</g>
<!-- UiComponent&#45;&gt;UiModule -->
<g id="edge47" class="edge">
<title>UiComponent&#45;&gt;UiModule</title>
<path fill="none" stroke="black" d="M6395,-85.02C6395,-85.02 6395,-106.53 6395,-106.53"/>
<polygon fill="black" stroke="black" points="6391.5,-106.53 6395,-116.53 6398.5,-106.53 6391.5,-106.53"/>
</g>
<!-- Ui2Component  -->
<g id="node53" class="node">
<title>Ui2Component </title>
<polygon fill="#fb8072" stroke="black" points="6565.83,-220.8 6460.17,-220.8 6460.17,-184.8 6565.83,-184.8 6565.83,-220.8"/>
<text text-anchor="middle" x="6513" y="-198.6" font-family="Times,serif" font-size="14.00">Ui2Component </text>
</g>
<!-- UiModule&#45;&gt;Ui2Component  -->
<g id="edge48" class="edge">
<title>UiModule&#45;&gt;Ui2Component </title>
<path fill="none" stroke="black" stroke-dasharray="5,2" d="M6431.65,-140.8C6460.17,-140.8 6494.95,-140.8 6494.95,-140.8 6494.95,-140.8 6494.95,-174.53 6494.95,-174.53"/>
<polygon fill="black" stroke="black" points="6491.45,-174.53 6494.95,-184.53 6498.45,-174.53 6491.45,-174.53"/>
</g>
<!-- UiComponent  -->
<g id="node54" class="node">
<title>UiComponent </title>
<polygon fill="#fb8072" stroke="black" points="6442.33,-220.8 6343.67,-220.8 6343.67,-184.8 6442.33,-184.8 6442.33,-220.8"/>
<text text-anchor="middle" x="6393" y="-198.6" font-family="Times,serif" font-size="14.00">UiComponent </text>
</g>
<!-- UiModule&#45;&gt;UiComponent  -->
<g id="edge49" class="edge">
<title>UiModule&#45;&gt;UiComponent </title>
<path fill="none" stroke="black" stroke-dasharray="5,2" d="M6395,-153.02C6395,-153.02 6395,-174.53 6395,-174.53"/>
<polygon fill="black" stroke="black" points="6391.5,-174.53 6395,-184.53 6398.5,-174.53 6391.5,-174.53"/>
</g>
</g>
</svg>
